<svg width="40" height="40" xmlns="http://www.w3.org/2000/svg" xmlns:xlink="http://www.w3.org/1999/xlink"><defs><path d="M10.256 0h19.488c3.567 0 4.86.371 6.163 1.069a7.27 7.27 0 0 1 3.024 3.024C39.63 5.396 40 6.689 40 10.256v19.488c0 3.567-.371 4.86-1.069 6.163a7.27 7.27 0 0 1-3.024 3.024C34.604 39.63 33.311 40 29.744 40H10.256c-3.567 0-4.86-.371-6.163-1.069a7.27 7.27 0 0 1-3.024-3.024C.37 34.604 0 33.311 0 29.744V10.256c0-3.567.371-4.86 1.069-6.163a7.27 7.27 0 0 1 3.024-3.024C5.396.37 6.689 0 10.256 0z" id="a"/><path d="M8.277 13.559c.194.388.085.94-.498 1.24-.567.296-1.126.426-1.816.426-1.16 0-2.05-.378-2.646-1.126-.58-.73-.876-1.815-.876-3.23V4.878H1.014c-.479 0-.99-.317-.99-.9 0-.585.511-.9.99-.9h1.427V.906a.9.9 0 0 1 .916-.902c.52 0 .927.396.927.902v2.173H6.69c.471 0 .975.316.975.9 0 .585-.504.9-.975.9H4.284v5.992c0 1.887.441 2.556 1.682 2.556.296 0 .783-.12 1.004-.248.01-.005.021-.013.034-.019h.003c.543-.258 1.07 0 1.27.4zm11.839 0c.194.388.085.94-.498 1.24-.567.296-1.126.426-1.816.426-1.16 0-2.05-.378-2.646-1.126-.58-.73-.876-1.815-.876-3.23V4.878h-1.427c-.479 0-.99-.317-.99-.9 0-.585.511-.9.99-.9h1.427V.906a.9.9 0 0 1 .916-.902c.52 0 .926.396.926.902v2.173h2.407c.471 0 .974.316.974.9 0 .585-.503.9-.974.9h-2.407v5.992c0 1.887.442 2.556 1.683 2.556.295 0 .783-.12 1.004-.248.01-.005.021-.013.034-.019h.003a.944.944 0 0 1 1.27.4zm-9.994-10.59c.519 0 .926.404.926.923v10.39c0 .53-.41.943-.932.943a.928.928 0 0 1-.931-.942V3.913c0-.465.351-.945.937-.945zM10.116.002c.634 0 1.15.516 1.15 1.15 0 .633-.516 1.15-1.15 1.15-.633 0-1.15-.517-1.15-1.15 0-.634.517-1.15 1.15-1.15zm21.852 9.033c.01.253.005.407-.013.524a.57.57 0 0 1-.022.09l-.002.014a.927.927 0 0 1-.881.66.916.916 0 0 1-.916-.924c0-.117 0-.223.002-.316 0-.304-.034-.613-.098-.914l-.003-.008c-.303-1.65-1.37-2.84-2.93-3.26a5.018 5.018 0 0 0-2.442.02c-1.169.317-2.125 1.175-2.617 2.357l-.003.008a4.323 4.323 0 0 0-.391 1.802c0 .306.032.612.096.913l.056.26c.154.63.442 1.19.854 1.673.62.735 1.523 1.23 2.548 1.39.053.01.106.018.16.023l.034.006c.072.008.147.013.219.018h.01c.05.003.099.006.147.006.016.002.029.002.042.002a4.831 4.831 0 0 0 3.054-.972c.415-.321.982-.282 1.318.1.277.31.332.848-.093 1.274l-.006.006c-.98.913-2.457 1.437-4.06 1.437h-.112c-1.972-.026-3.692-.796-4.72-2.114-1.03-1.323-1.485-2.779-1.397-4.448.122-2.62 1.855-4.84 4.312-5.522a7.159 7.159 0 0 1 3.512-.002c2.67.713 4.291 2.918 4.342 5.897zm-7.845.512a.72.72 0 0 1-.044.227.542.542 0 0 1-.088.126l.012.035c.143.209.316.368.503.488.36.235.77.332 1.091.368a3.798 3.798 0 0 0 .971-.003c.319-.038.723-.135 1.08-.368.184-.123.36-.279.503-.488.002-.006.005-.02.011-.035a.504.504 0 0 1-.137-.344c0-.273.213-.494.48-.494.131 0 .257.053.348.153l.67.726c.002.003.005.003.005.006a.422.422 0 0 1 .059.162.486.486 0 0 1-.465.611h-.018a.45.45 0 0 1-.126-.02.37.37 0 0 0-.152.029l-.038.018a.395.395 0 0 0-.102.082l-.032.041c-.003.006-.01.009-.012.015a2.583 2.583 0 0 1-.749.594c-.205.114-.43.206-.667.279-.17.05-.345.094-.53.126a4.18 4.18 0 0 1-1.24 0 4.221 4.221 0 0 1-.529-.126 3.787 3.787 0 0 1-.667-.28 2.554 2.554 0 0 1-.751-.596c-.003-.006-.01-.009-.012-.015-.015-.017-.023-.03-.032-.04a.342.342 0 0 0-.14-.1.365.365 0 0 0-.15-.03h-.003a.592.592 0 0 1-.125.02h-.02a.488.488 0 0 1-.48-.494.58.58 0 0 1 .014-.123.395.395 0 0 1 .059-.156l.005-.006.67-.726a.47.47 0 0 1 .348-.156c.264 0 .48.22.48.494z" id="c"/></defs><g fill="none" fill-rule="evenodd"><mask id="b" fill="#fff"><use xlink:href="#a"/></mask><use fill="#17C060" fill-rule="nonzero" xlink:href="#a"/><g mask="url(#b)"><g transform="translate(4 12.4)"><mask id="d" fill="#fff"><use xlink:href="#c"/></mask><use fill="#FFF" fill-rule="nonzero" xlink:href="#c"/><g mask="url(#d)" fill="#FFF"><path d="M0 0h32v15.228H0z"/></g></g></g></g></svg>